<?xml version="1.0" encoding="UTF-8"?>
<!-- Created with Inkscape (http://www.inkscape.org/) -->
<svg width="474.68pt" height="474.68pt" version="1.1" xmlns="http://www.w3.org/2000/svg" xmlns:cc="http://creativecommons.org/ns#" xmlns:dc="http://purl.org/dc/elements/1.1/" xmlns:rdf="http://www.w3.org/1999/02/22-rdf-syntax-ns#" xmlns:xlink="http://www.w3.org/1999/xlink">
 <metadata>
  <rdf:RDF>
   <cc:Work rdf:about="">
    <dc:description/>
    <dc:subject>
     <rdf:Bag>
      <rdf:li>weapon</rdf:li>
      <rdf:li/>
      <rdf:li>tool</rdf:li>
     </rdf:Bag>
    </dc:subject>
    <dc:publisher>
     <cc:Agent rdf:about="http://www.openclipart.org">
      <dc:title>Nicu Buculei</dc:title>
     </cc:Agent>
    </dc:publisher>
    <dc:creator>
     <cc:Agent>
      <dc:title>Nicu Buculei</dc:title>
     </cc:Agent>
    </dc:creator>
    <dc:rights>
     <cc:Agent>
      <dc:title>Nicu Buculei</dc:title>
     </cc:Agent>
    </dc:rights>
    <dc:date/>
    <dc:format>image/svg+xml</dc:format>
    <dc:type rdf:resource="http://purl.org/dc/dcmitype/StillImage"/>
    <cc:license rdf:resource="http://web.resource.org/cc/PublicDomain"/>
    <dc:language>en</dc:language>
   </cc:Work>
   <cc:License rdf:about="http://web.resource.org/cc/PublicDomain">
    <cc:permits rdf:resource="http://web.resource.org/cc/Reproduction"/>
    <cc:permits rdf:resource="http://web.resource.org/cc/Distribution"/>
    <cc:permits rdf:resource="http://web.resource.org/cc/DerivativeWorks"/>
   </cc:License>
  </rdf:RDF>
 </metadata>
 <defs>
  <linearGradient id="linearGradient6630">
   <stop stop-color="#fff" offset="0"/>
   <stop stop-color="#fff" stop-opacity="0" offset="1"/>
  </linearGradient>
  <linearGradient id="linearGradient2180">
   <stop stop-color="#b0b0b0" offset="0"/>
   <stop stop-color="#e8e8e9" offset="1"/>
  </linearGradient>
  <linearGradient id="linearGradient2202" x1="423.39" x2="556.42" y1="10.073" y2="155.44" gradientTransform="matrix(.47355 .36941 -1.8618 2.0301 257.89 -149.98)" gradientUnits="userSpaceOnUse">
   <stop stop-color="#0163ff" stop-opacity=".10112" offset="0"/>
   <stop stop-color="#fff" stop-opacity="0" offset="1"/>
  </linearGradient>
  <linearGradient id="linearGradient2183" x1="666.23" x2="692.38" y1="107.83" y2="17.733" gradientTransform="matrix(.33897 .26443 -2.601 2.8361 257.89 -149.98)" gradientUnits="userSpaceOnUse" xlink:href="#linearGradient2180"/>
  <linearGradient id="linearGradient2185" x1="676.05" x2="571.42" y1="103.76" y2="34.009" gradientTransform="matrix(.33897 .26443 -2.601 2.8361 257.89 -149.98)" gradientUnits="userSpaceOnUse" xlink:href="#linearGradient2180"/>
  <linearGradient id="linearGradient2190" x1="145.82" x2="193.43" y1="537.14" y2="541.29" gradientTransform="matrix(1.5408 1.202 -.57221 .62393 257.89 -149.98)" gradientUnits="userSpaceOnUse" xlink:href="#linearGradient2180"/>
  <linearGradient id="linearGradient2188" x1="143.8" x2="118.82" y1="522" y2="482.4" gradientTransform="matrix(1.5357 1.198 -.57412 .62602 257.89 -149.98)" gradientUnits="userSpaceOnUse" xlink:href="#linearGradient2180"/>
  <linearGradient id="linearGradient2186" x1="130.54" x2="130.54" y1="786.66" y2="822.55" gradientTransform="matrix(1.7295 1.3491 -.50979 .55587 257.89 -149.98)" gradientUnits="userSpaceOnUse" xlink:href="#linearGradient2180"/>
  <linearGradient id="linearGradient2194" x1="151.1" x2="177.24" y1="697.5" y2="685.19" gradientTransform="matrix(1.5259 1.1903 -.57782 .63005 257.89 -149.98)" gradientUnits="userSpaceOnUse" xlink:href="#linearGradient2180"/>
  <linearGradient id="linearGradient2192" x1="147.87" x2="118.72" y1="687.36" y2="673.5" gradientTransform="matrix(1.4934 1.165 -.59038 .64375 257.89 -149.98)" gradientUnits="userSpaceOnUse" xlink:href="#linearGradient2180"/>
  <path id="Main" d="m58.547-27.422c6.4834 5.4402 14.677 8.4224 23.14 8.4224h13.576c12.861 0 24.746-6.8616 31.177-18 3.159-5.4724 4.823-11.681 4.823-18 0-19.882-16.118-36-36-36-19.882 0-36 16.118-36 36s-16.118 36-36 36c-19.882 0-36-16.118-36-36s16.118-36 36-36c6.3193 0 12.528 1.6636 18 4.8232l2.5979 1.5c23.205 13.397 37.5 38.157 37.5 64.952 0 31.53-19.72 59.693-49.348 70.477l-37.537 13.662c-7.9531 2.8944-14.633 8.4991-18.864 15.829l-6.7878 11.757c-6.4307 11.138-6.4307 24.862 0 36 3.1594 5.472 7.7043 10.017 13.177 13.177 17.218 9.941 39.236 4.041 49.177-13.177 9.9409-17.219 4.0415-39.236-13.177-49.177-17.219-9.9409-23.118-31.958-13.177-49.177 9.9409-17.218 31.958-23.118 49.177-13.177 17.218 9.9409 23.118 31.958 13.177 49.177-3.1595 5.4725-7.7044 10.017-13.177 13.177l-2.5981 1.4998c-23.205 13.397-51.795 13.397-75 0-27.306-15.765-41.835-46.925-36.36-77.975l6.9369-39.339c1.4696-8.335-0.0446-16.922-4.2763-24.251l-6.7878-11.757c-6.4307-11.138-18.315-18-31.177-18-6.3195 0-12.528 1.6636-18 4.8232-17.218 9.941-23.117 31.958-13.176 49.177 9.94 17.218 31.958 23.118 49.176 13.177 17.218-9.9409 39.236-4.0415 49.177 13.177 9.9409 17.218 4.0413 39.236-13.177 49.177-17.218 9.9409-39.236 4.0415-49.177-13.177-3.1594-5.4725-4.8232-11.681-4.8232-18l5e-4 -2.9998c0-26.795 14.295-51.555 37.5-64.952 27.305-15.765 61.555-12.768 85.708 7.4987z" stroke-linejoin="round"/>
  <filter id="filter6562" x="-.062102" y="-.060269" width="1.1242" height="1.1205" color-interpolation-filters="sRGB">
   <feGaussianBlur result="blur" stdDeviation="9.69102 12.8972"/>
  </filter>
  <linearGradient id="linearGradient6632" x1="183" x2="480.83" y1="18.762" y2="586.01" gradientUnits="userSpaceOnUse" xlink:href="#linearGradient6630"/>
 </defs>
 <g transform="translate(42.54 56.841)">
  <circle class="st0" cx="273.91" cy="259.61" r="316.45" stroke-width="9.8892"/>
  <g>
   <g fill-rule="evenodd">
    <path d="m391.59 57.929-233.85 276.42 56.223 42.141 260.96-264.01 8.3496-83.671z" stroke="#000" stroke-width="1.0028pt"/>
    <path d="m394.96 57.327-232.92 276.48 26.387 20.584 293.67-322.38z" fill="url(#linearGradient2185)"/>
    <path d="m469.96 115.83-256.99 257.71-26.387-20.584 295.98-320.57z" fill="url(#linearGradient2183)"/>
    <path d="m481.52 31.267-87.163 25.338-232.92 276.48 50.922 39.723 256.99-257.71 12.632-83.478-59.201 64.12z" fill="url(#linearGradient2202)"/>
    <path d="m480.06 33.629-294.88 318.55 3.8287 2.9867 291.42-320.75z"/>
   </g>
   <ellipse cx="187.35" cy="353.52" rx="50.488" ry="45.846" fill="#b6b6b6" stroke="#000" stroke-width="3.749"/>
   <g fill-rule="evenodd">
    <path d="m55.733 441.18-12.714 27.21 45.95 35.104 24.096-15.582z" stroke="#000" stroke-width="1.0028pt"/>
    <path d="m55.592 443.39-8.9233 23.584 41.673 33.357 23.737-12.028z" fill="url(#linearGradient2186)"/>
    <path d="m159.89 334.43-21.825 26.638-4.2262 1.549-4.1793 3.8224 0.87469 3.8159-5.8429 7.0322-4.9392 1.3462-3.6052 4.1148 0.53349 3.7516-5.7736 7.7464-0.0319-0.0249-4.9074 0.38836-3.7292 4.4337 1.0806 4.0735-6.0475 6.236-5.3603 1.4333-3.2763 3.3888 1.0806 4.0735-4.8401 6.4712-4.9879 0.48087-4.3151 4.3378 1.6243 4.0316 0.12261 0.0452-0.8587 0.9959 16.061 12.983-20.452-6.4644-5.2093 1.085-3.4273 3.7371 1.0806 4.0735 51.144 16.324 3.6152 2.9211 1.4671-1.4804 4.9459-0.31568 3.6613-4.176 0.20804-3.4216 6.8493-8.0334 5.0358-0.15639 3.0463-4.2401 0.11892-3.398 5.9204-6.5292 5.6305-0.28638 3.9862-3.6118-0.70366-4.7464 6.0169-5.6424 5.532-1.4003 3.2611-3.5559-0.21265-4.3634 7.0199-6.681 5.071-1.2512 3.4273-3.7371 0.12698-3.6363 6.4348-7.3978 5.5014-0.80666 3.4273-3.7371-0.40085-4.0985 7.4385-7.5738z" stroke="#000" stroke-width="1.2327pt"/>
    <path d="m161.58 334.75-85.416 100.06 42.83 34.693 92.823-94.287z" fill="#303030"/>
    <g stroke="#000" stroke-width="1.0028pt">
     <path d="m131.2 370.66 64.579 20.798 5.5569-0.80939 3.4378-3.7485-0.39319-4.1648-65.625-20.971-5.206 1.083-3.4378 3.7485z" fill="#000090"/>
     <path d="m64.232 450.24 55.851 17.847 5.5569-0.80937 3.4378-3.7485-0.39318-4.1648-56.896-18.02-5.206 1.083-3.4378 3.7485z" fill="#000090"/>
     <path d="m46.279 406.91-17.735 28.234 97.572 74.869 23.572-20.147z"/>
    </g>
   </g>
  </g>
  <g fill="#000090" fill-rule="evenodd" stroke="#000" stroke-width="1.0028pt">
   <path d="m76.924 433.77 58.293 18.466 5.5569-0.80938 3.4377-3.7485-0.39316-4.1649-59.338-18.639-5.206 1.0831-3.4378 3.7485z"/>
   <path d="m89.454 418.47 61.085 19.358 5.5569-0.80939 3.4377-3.7485-0.39318-4.1649-62.131-19.531-5.206 1.0831-3.4378 3.7485z"/>
   <path d="m103.03 403.34 62.131 19.531 5.5569-0.80938 3.4378-3.7485-0.39317-4.1648-63.176-19.703-5.206 1.0831-3.4378 3.7485z"/>
   <path d="m117.11 386.67 63.183 20.352 5.5569-0.80938 3.4378-3.7485-0.39317-4.1649-64.229-20.524-5.206 1.0831-3.4378 3.7485z"/>
  </g>
  <g fill-rule="evenodd">
   <path d="m148.36 489.88-22.755 17.885-48.037-35.797 17.064-22.034z" fill="url(#linearGradient2194)"/>
   <path d="m46.966 409.94-15.348 23.663 46.628 38.989 16.99-22.217z" fill="url(#linearGradient2192)"/>
   <path d="m126.72 297.09-35.406 33.297 15.293 7.6195 55.759 39.992 51.778 41.727 9.1806 13.492 33.866-31.526-18.828-8.4997-52.926-39.421-50.138-44.722z" stroke="#000" stroke-width="1.0028pt"/>
   <path d="m250.81 403.24-26.473 23.026-5.7632-7.0927-53.115-43.283 22.973-21.494 35.867 27.45-2.418 3.1926 17.357 13.285z" fill="url(#linearGradient2190)"/>
   <path d="m126.25 302.51-29.13 26.763 13.186 8.3275 55.149 38.287 22.973-21.494-36.132-31.332-2.6863 3.7363-16.058-13.514z" fill="url(#linearGradient2188)"/>
  </g>
  <g transform="matrix(.15837 .1387 .1387 -.15837 186.1 354.74)" fill="none" stroke="#000" stroke-width="18">
   <use width="100%" height="100%" stroke="#ffffff" stroke-width="24" xlink:href="#Main"/>
   <use width="100%" height="100%" xlink:href="#Main"/>
   <path d="m-38.971 132.5 38.971 67.5 38.971-67.5m56.292-232.5h77.942l-38.971 67.5m-229.5-67.5h-77.942l38.971 67.5" stroke="#fff" stroke-linejoin="round" stroke-width="6"/>
   <path d="m-38.971 132.5 38.971 67.5 38.971-67.5-38.971 17.5m95.263-250h77.942l-38.971 67.5-4.33-42.5m-225.17-25h-77.942l38.971 67.5 4.33-42.5" fill="#000" stroke="none"/>
   <path d="m122.84-31.86c5.441-6.4834 8.423-14.677 8.423-23.14 0-19.882-16.118-36-36-36-2.0955 0-4.1875 0.1831-6.2512 0.5471m-122.84 212.77c2.8945 7.953 8.4993 14.632 15.829 18.864 17.218 9.941 39.236 4.041 49.177-13.177 1.0476-1.815 1.9353-3.718 2.6521-5.687m-122.84-212.77c-8.335-1.4695-16.922 0.0447-24.252 4.2763-17.218 9.941-23.117 31.958-13.176 49.177 1.047 1.8149 2.252 3.5352 3.599 5.1401"/>
   <path d="m79.722-35.318c1.0896 5.126 1.6389 10.352 1.6389 15.593 0 3.492-0.2439 6.98-0.7297 10.438m-11.697-70.265c-6.2151 6.6648-9.6714 15.439-9.6714 24.552 0 4.1995-0.7349 8.3667-2.1709 12.313m-69.692-15.45c0.9272-10.6 6.4976-20.248 15.214-26.352m-11.888 171.19c-4.9841-1.6194-9.7852-3.7569-14.324-6.3772-3.024-1.7459-5.9229-3.7015-8.6748-5.8511m66.7 25.003c-2.6643-8.7146-8.535-16.095-16.427-20.651-3.6367-2.0996-6.8784-4.8198-9.5776-8.0366m48.226-52.63c8.7165 6.1036 14.287 15.751 15.214 26.352m-142.31-95.89c3.8946-3.5066 8.1465-6.5957 12.685-9.216 3.0239-1.7459 6.1667-3.2789 9.4043-4.587m-55.003 45.262c8.8796 2.0498 18.206 0.656 26.098-3.9004 3.6367-2.0996 7.613-3.5474 11.748-4.2764m21.466 68.08c-9.6443 4.497-20.784 4.4973-30.428 5e-4" stroke="#fff" stroke-width="24"/>
   <path d="m69.366-80.008c-6.4812 6.7115-10.104 15.678-10.104 25.008 0 4.4106-0.8106 8.7839-2.3911 12.901m-22.266 142.18c-2.5718-8.9688-8.5254-16.589-16.606-21.254-3.8196-2.2053-7.2017-5.094-9.9773-8.5215m-111.99-90.371c9.0533 2.2573 18.629 0.9116 26.709-3.7534 3.8196-2.2053 8.0122-3.6902 12.368-4.3799"/>
   <path d="m59.523-26.632c-0.3298-0.2576-0.6558-0.5215-0.9766-0.7908l-18.114-15.2m-47.13 107.49c0.38843-0.157 0.77979-0.3074 1.1731-0.4502l22.221-8.0879m-69.521-94.559c-0.0583 0.4148-0.124 0.8288-0.1965 1.2412l-4.1064 23.288" stroke="#fff" stroke-width="24"/>
   <path d="m79.438-36.596c1.2771 5.5327 1.9221 11.193 1.9221 16.871 0 3.929-0.3088 7.8521-0.9233 11.733m-93.087-49.519c0.7729-11.054 6.5942-21.137 15.781-27.334m56.89 58.596c-0.5017-0.3782-0.9939-0.7696-1.4751-1.1734l-18.174-15.25m-48.399 129.77c-5.4302-1.6602-10.655-3.9319-15.572-6.771-3.4026-1.9644-6.6458-4.1934-9.699-6.6661m89.428-55.856c9.187 6.1966 15.008 16.279 15.781 27.334m-79.191 19.97c0.57836-0.2453 1.1633-0.476 1.7537-0.6906l22.294-8.1143m-88.181-106.8c4.1529-3.8725 8.7327-7.2614 13.65-10.1 3.4026-1.9644 6.9543-3.6585 10.622-5.0665m3.6585 105.37c-9.9603 4.8577-21.603 4.8577-31.562 2e-4m22.301-78.566c-0.0764 0.6235-0.1697 1.2453-0.2786 1.864l-4.1199 23.364"/>
  </g>
  <g transform="rotate(-12.066 66.724 484.01)" fill="#00fffa" filter="url(#filter6562)">
   <path d="m183 18.762-4.0879 2.877c14.477 20.561 17.66 28.325 27.647 37.902 9.9873 9.5764 26.709 21.057 30.007 26.391 1.6493 2.6671 2.4098 5.0932 2.3633 8.0781-0.0465 2.9849-0.97536 6.6032-3.0664 11.289-4.1821 9.3717-12.946 22.828-27.096 43.672-0.57867 0.85246-0.48563 1.9134-0.30273 2.4414s0.39754 0.8064 0.59766 1.0586c0.40023 0.50438 0.81597 0.87066 1.334 1.3008 1.036 0.86025 2.4637 1.8714 4.3008 3.0879 3.6741 2.4329 8.9456 5.6388 15.273 9.3496 12.656 7.4216 29.51 16.838 45.822 25.783 24.922 13.667 48.405 26.15 54.021 28.873-0.55393-0.26852-0.16286-0.22445-4e-3 0.93164 0.15896 1.1561 0.15102 3.0032-0.0488 5.2168-0.39968 4.4272-1.5075 10.368-2.8574 16.477-2.6998 12.218-6.3063 24.91-7.1836 29.371-0.61847 3.1448 0.37569 6.4508 1.8691 10.092 1.4934 3.641 3.6296 7.5763 5.9238 11.443 4.5884 7.7341 9.8974 15.355 11.625 18.58 6.5653 12.255 10.134 20.859 11.391 27.186 1.2562 6.3261 0.40021 10.237-2.0371 14.223-4.8746 7.9713-17.404 15.817-32.047 35.061l3.9785 3.0274c14.193-18.652 26.349-25.691 32.334-35.479 2.9926-4.8937 4.1108-10.58 2.6758-17.807s-5.2233-16.13-11.889-28.572c-2.1455-4.005-7.2752-11.26-11.73-18.77-2.2276-3.7548-4.2646-7.5342-5.5996-10.789s-1.8249-6.0251-1.5879-7.2305c0.70722-3.5961 4.4143-16.841 7.1582-29.258 1.372-6.2086 2.5178-12.26 2.9551-17.104 0.21863-2.4217 0.27541-4.5292 0.0254-6.3476-0.25002-1.8184-0.74171-3.769-2.7695-4.752-5.1197-2.4818-28.913-15.111-53.799-28.758-16.288-8.9322-23.165-17.634-35.741-25.009-6.2882-3.6876-21.476-7.5755-24.999-9.9085-1.5945-1.0558-2.7124-1.8737-3.5-2.502 13.429-19.81 19.718-23.548 24.089-33.343 2.2538-5.0506 5.822-18.814 5.8834-22.757 0.0614-3.943-1.0786-7.4998-3.1113-10.787-4.0655-6.5745-11.392-12.405-21.246-21.854-9.8544-9.4489-22.306-22.424-36.572-42.686z" color="#000000" style="-inkscape-stroke:none"/>
   <path d="m353.67 343.97-0.89453 3.8984c23.898 5.4881 34.991 15.735 43.834 28.473 8.8434 12.738 15.24 28.16 29.002 43.072-13.244-14.351-16.534-32.129-25.715-45.354s-21.513-24.414-46.227-30.09z" color="#000000" style="-inkscape-stroke:none"/>
   <path d="m442.59 231.21c-6.1627 0.27804-12.648 2.5522-19.18 4.8281s-15.893 3.8993-15.893 3.8993c-0.67902-0.49134-14.01 1.0751-18.422-2.9071-3.3393-3.0142-8.1202-3.19-13.244-2.5625s-10.871 2.1944-16.633 3.7734-11.536 3.1732-16.461 3.9102c-4.9252 0.73691-8.8883 0.48377-11.041-0.80273l-2.5644 4.291c3.9498 2.3605 8.9523 2.264 14.346 1.457 5.3934-0.80695 11.291-2.4574 17.041-4.0332s11.36-3.0744 15.92-3.6328 7.7928-0.0383 9.2871 1.3105c5.5966 5.0517 12.46 6.2075 19.211 5.4785s13.585-3.1898 20.098-5.459c6.5122-2.2692 12.713-4.3269 17.762-4.5547s8.7269 0.96599 11.852 5.668c15.1 22.721 32.199 28.744 48.838 27.502 15.565-1.1615 30.678-8.0508 44.666-12.271 0.013 0.77019 0.0296 1.3641 0.0371 2.4121 0.0258 3.6252 0.0405 8.7648 0.20703 14.662 0.33311 11.795 1.2535 26.602 4.1719 38.752-2.7566-11.476 1.1551-27.246 0.82617-38.893-0.16447-5.8235-0.17913-10.913-0.20508-14.559-0.013-1.8226-0.0267-3.2762-0.0684-4.332-0.0208-0.52789-0.0441-0.93904-0.0996-1.3535-0.0277-0.20724-0.0404-0.39192-0.17578-0.77735-0.0677-0.19271-0.12991-0.45029-0.51367-0.88671-0.38376-0.43643-1.6058-1.0425-2.5781-0.7754-15.442 4.243-31.362 11.895-46.639 13.035-15.276 1.1399-26.088-4.412-40.479-26.068-4.0211-6.0508-13.903-7.3902-20.066-7.1122z" color="#000000" style="-inkscape-stroke:none"/>
   <path d="m255.91 178.27c-6.7143 3.4765-10.495 7.961-12.322 12.818s-1.7658 9.9379-1.416 14.803c0.34984 4.8648 0.98311 9.5612 0.63672 13.652-0.3464 4.0912-2.557 4.8912-5.9412 7.8335-8.9355 7.7689-10.673 17.953-9.1057 24.661 1.567 6.7076 6.9984 12.068 13.113 16.543s13.062 8.0838 18.09 10.873c2.5138 1.3946 4.5627 2.6118 5.6426 3.4668 0.2329 0.18441 0.20247 0.18161 0.33007 0.31445-7.8844 8.4408-15.253 20.207-19.875 29.932l5.064-4.3259c4.5761-9.6273 10.683-15.604 18.346-23.592 0.39809-0.41498 0.73678-1.0401 0.80664-1.6953 0.0699-0.65518-0.1051-1.2487-0.33398-1.7031-0.45776-0.90887-1.0976-1.4679-1.8535-2.0664-1.5118-1.1971-3.6325-2.4106-6.1875-3.8281-5.11-2.835-11.895-6.3768-17.668-10.602-5.7732-4.2247-10.385-9.1124-11.58-14.227-1.1947-5.1141 0.55882-10.917 8.8652-18.139 4.2321-3.6796 5.8729-8.3769 6.2734-13.107 0.40052-4.7305-0.29577-9.5903-0.63282-14.277-0.33705-4.687-0.31779-9.1526 1.1699-13.107 1.4877-3.9548 4.38-7.5475 10.418-10.674z" color="#000000" style="-inkscape-stroke:none"/>
   <path d="m387.39 163.31c-3.821 0.15736-7.6052 0.69946-11.189 1.7852-7.1685 2.1714-13.553 6.6283-17.363 14.338-3.0956 6.2637-14.46 11.833-27.295 15.109-12.835 3.2762-27.047 4.5057-35.217 3.6367l-0.38086 3.5801c8.9369 0.95063 23.255-0.35065 36.488-3.7285 13.233-3.3779 25.471-8.5853 29.631-17.002 3.3559-6.7905 8.7294-10.534 15.182-12.488 6.4522-1.9544 13.613-1.1962 20.764-0.31978 7.1514 0.87642 14.285 1.856 19.283 3.4565 2.4988 0.80024 3.4348 1.7936 4.8656 2.3564 0.71539 0.28138 2.3956 0.27655 2.7672 0.44051 0.15205 0.0671-0.0789-0.0378 0 0 7.6351 8.2735 20.743 12.643 33.303 16.967 12.704 4.374 25.152 8.8589 31.857 16.521-7.6686-8.7628-17.538-16.908-30.252-21.285-12.715-4.3777-25.573-7.3687-32.185-14.73-0.44185-0.49194-0.42842-0.35621-0.50976-0.40234-0.0813-0.0461-0.1465-0.0786-0.22071-0.11524-0.14841-0.0733-0.32226-0.15434-0.53906-0.25-0.4336-0.19131-1.0305-0.44028-1.7832-0.73632-1.5054-0.5921-3.628-1.368-6.2051-2.1934-5.1542-1.6507-12.123-3.4973-19.588-4.4121-3.7323-0.45741-7.5911-0.68471-11.412-0.52735z" color="#000000" style="-inkscape-stroke:none"/>
   <path d="m318.01 388.5 0.86523 4.9258c-0.54132 0.095-0.77669-0.25434-0.43164 0.13672s0.90806 1.2884 1.4707 2.4746c1.1253 2.3725 2.3409 5.8859 3.5508 9.5098 1.2098 3.6239 2.4224 7.367 3.6934 10.424 0.63547 1.5284 1.2774 2.8842 2.0195 4.0352 0.74213 1.1509 1.5263 2.2507 3.1309 2.7812 2.4826 0.82082 3.5004 1.682 3.6934 1.8652-0.0517 0.0961-0.0903 0.21001-0.38868 0.51172-1.5845 1.6022-6.881 4.2815-13.002 6.7207-6.121 2.4392-13.168 4.9025-18.988 7.2695-2.9103 1.1835-5.511 2.338-7.6074 3.5098-2.0964 1.1717-3.7914 2.1449-4.7598 4.1797-10.268 21.576-28.183 34.906-46.375 46.832-18.192 11.926-36.682 22.318-47.215 38.672l5.3046-3.9547c9.5946-14.897 26.293-18.5 44.652-30.536 18.359-12.036 37.255-25.974 48.148-48.865-0.0522 0.10977 0.91488-0.97626 2.6836-1.9648 1.7687-0.98859 4.2351-2.0964 7.0527-3.2422 5.6352-2.2917 12.684-4.7576 18.953-7.2559 6.269-2.4982 11.657-4.7637 14.707-7.8477 0.76246-0.77099 1.4226-1.6454 1.7578-2.7832 0.33521-1.1378 0.18322-2.5492-0.43164-3.6211-1.2297-2.1437-3.4234-3.183-6.6152-4.2383 0.39235 0.12972-0.0334-0.0185-0.5-0.74219-0.46662-0.72365-1.0311-1.8694-1.6035-3.2461-1.1448-2.7534-2.3503-6.4373-3.5684-10.086-1.2181-3.6486-2.4396-7.2541-3.7754-10.07-0.66788-1.4081-1.3425-2.6213-2.2402-3.6387-0.89769-1.0174-2.3828-2.0716-4.1816-1.7559z" color="#000000" style="-inkscape-stroke:none"/>
   <path d="m323.22 434.91-3.3652 0.95898c0.94806 3.3257 4.2364 6.4886 8.5117 10.34 4.2753 3.8512 9.6082 8.1166 14.711 12.35 5.1027 4.233 9.9789 8.4428 13.25 12.047 1.6355 1.802 2.8611 3.4611 3.5137 4.7812s0.68415 2.1407 0.47852 2.6289c-1.3605 3.23-0.87043 6.5072 0.99023 9.0508s4.8605 4.5005 8.5859 6.2129c7.4508 3.4247 17.971 5.8181 28.859 7.8262s22.128 3.6027 30.773 5.248c4.3226 0.82267 8.0034 1.6649 10.592 2.5371 1.2942 0.43611 2.3135 0.88482 2.9609 1.2812 0.64742 0.39643 0.83267 0.727 0.81836 0.68555l6.328 4.5543c-0.40587-1.1758-4.3105-7.6072-5.3183-8.2242-1.0077-0.61705-2.2288-1.127-3.6719-1.6133-2.8861-0.97252-6.6628-1.8243-11.055-2.6602-8.7837-1.6717-20.003-3.26-30.793-5.25s-21.168-4.4091-28.033-7.5645c-3.4324-1.5777-5.9436-3.3512-7.2226-5.0996-1.279-1.7484-1.5574-3.3253-0.58789-5.627 0.75345-1.7887 0.32727-3.7293-0.56641-5.5371-0.89367-1.8078-2.3017-3.6441-4.0606-5.582-3.5177-3.8758-8.4723-8.1288-13.607-12.389-5.1351-4.2599-10.45-8.5161-14.604-12.258-4.1538-3.7417-7.0737-7.243-7.4883-8.6973z" color="#000000" style="-inkscape-stroke:none"/>
  </g>
  <g transform="rotate(-12.066 66.724 484.01)" fill="url(#linearGradient6632)">
   <path d="m183 18.762-4.0879 2.877c14.477 20.561 17.66 28.325 27.647 37.902 9.9873 9.5764 26.709 21.057 30.007 26.391 1.6493 2.6671 2.4098 5.0932 2.3633 8.0781-0.0465 2.9849-0.97536 6.6032-3.0664 11.289-4.1821 9.3717-12.946 22.828-27.096 43.672-0.57867 0.85246-0.48563 1.9134-0.30273 2.4414s0.39754 0.8064 0.59766 1.0586c0.40023 0.50438 0.81597 0.87066 1.334 1.3008 1.036 0.86025 2.4637 1.8714 4.3008 3.0879 3.6741 2.4329 8.9456 5.6388 15.273 9.3496 12.656 7.4216 29.51 16.838 45.822 25.783 24.922 13.667 48.405 26.15 54.021 28.873-0.55393-0.26852-0.16286-0.22445-4e-3 0.93164 0.15896 1.1561 0.15102 3.0032-0.0488 5.2168-0.39968 4.4272-1.5075 10.368-2.8574 16.477-2.6998 12.218-6.3063 24.91-7.1836 29.371-0.61847 3.1448 0.37569 6.4508 1.8691 10.092 1.4934 3.641 3.6296 7.5763 5.9238 11.443 4.5884 7.7341 9.8974 15.355 11.625 18.58 6.5653 12.255 10.134 20.859 11.391 27.186 1.2562 6.3261 0.40021 10.237-2.0371 14.223-4.8746 7.9713-17.404 15.817-32.047 35.061l3.9785 3.0274c14.193-18.652 26.349-25.691 32.334-35.479 2.9926-4.8937 4.1108-10.58 2.6758-17.807s-5.2233-16.13-11.889-28.572c-2.1455-4.005-7.2752-11.26-11.73-18.77-2.2276-3.7548-4.2646-7.5342-5.5996-10.789s-1.8249-6.0251-1.5879-7.2305c0.70722-3.5961 4.4143-16.841 7.1582-29.258 1.372-6.2086 2.5178-12.26 2.9551-17.104 0.21863-2.4217 0.27541-4.5292 0.0254-6.3476-0.25002-1.8184-0.74171-3.769-2.7695-4.752-5.1197-2.4818-28.913-15.111-53.799-28.758-16.288-8.9322-23.165-17.634-35.741-25.009-6.2882-3.6876-21.476-7.5755-24.999-9.9085-1.5945-1.0558-2.7124-1.8737-3.5-2.502 13.429-19.81 19.718-23.548 24.089-33.343 2.2538-5.0506 5.822-18.814 5.8834-22.757 0.0614-3.943-1.0786-7.4998-3.1113-10.787-4.0655-6.5745-11.392-12.405-21.246-21.854-9.8544-9.4489-22.306-22.424-36.572-42.686z" color="#000000" style="-inkscape-stroke:none"/>
   <path d="m353.67 343.97-0.89453 3.8984c23.898 5.4881 34.991 15.735 43.834 28.473 8.8434 12.738 15.24 28.16 29.002 43.072-13.244-14.351-16.534-32.129-25.715-45.354s-21.513-24.414-46.227-30.09z" color="#000000" style="-inkscape-stroke:none"/>
   <path d="m442.59 231.21c-6.1627 0.27804-12.648 2.5522-19.18 4.8281s-15.893 3.8993-15.893 3.8993c-0.67902-0.49134-14.01 1.0751-18.422-2.9071-3.3393-3.0142-8.1202-3.19-13.244-2.5625s-10.871 2.1944-16.633 3.7734-11.536 3.1732-16.461 3.9102c-4.9252 0.73691-8.8883 0.48377-11.041-0.80273l-2.5644 4.291c3.9498 2.3605 8.9523 2.264 14.346 1.457 5.3934-0.80695 11.291-2.4574 17.041-4.0332s11.36-3.0744 15.92-3.6328 7.7928-0.0383 9.2871 1.3105c5.5966 5.0517 12.46 6.2075 19.211 5.4785s13.585-3.1898 20.098-5.459c6.5122-2.2692 12.713-4.3269 17.762-4.5547s8.7269 0.96599 11.852 5.668c15.1 22.721 32.199 28.744 48.838 27.502 15.565-1.1615 30.678-8.0508 44.666-12.271 0.013 0.77019 0.0296 1.3641 0.0371 2.4121 0.0258 3.6252 0.0405 8.7648 0.20703 14.662 0.33311 11.795 1.2535 26.602 4.1719 38.752-2.7566-11.476 1.1551-27.246 0.82617-38.893-0.16447-5.8235-0.17913-10.913-0.20508-14.559-0.013-1.8226-0.0267-3.2762-0.0684-4.332-0.0208-0.52789-0.0441-0.93904-0.0996-1.3535-0.0277-0.20724-0.0404-0.39192-0.17578-0.77735-0.0677-0.19271-0.12991-0.45029-0.51367-0.88671-0.38376-0.43643-1.6058-1.0425-2.5781-0.7754-15.442 4.243-31.362 11.895-46.639 13.035-15.276 1.1399-26.088-4.412-40.479-26.068-4.0211-6.0508-13.903-7.3902-20.066-7.1122z" color="#000000" style="-inkscape-stroke:none"/>
   <path d="m255.91 178.27c-6.7143 3.4765-10.495 7.961-12.322 12.818s-1.7658 9.9379-1.416 14.803c0.34984 4.8648 0.98311 9.5612 0.63672 13.652-0.3464 4.0912-2.557 4.8912-5.9412 7.8335-8.9355 7.7689-10.673 17.953-9.1057 24.661 1.567 6.7076 6.9984 12.068 13.113 16.543s13.062 8.0838 18.09 10.873c2.5138 1.3946 4.5627 2.6118 5.6426 3.4668 0.2329 0.18441 0.20247 0.18161 0.33007 0.31445-7.8844 8.4408-15.253 20.207-19.875 29.932l5.064-4.3259c4.5761-9.6273 10.683-15.604 18.346-23.592 0.39809-0.41498 0.73678-1.0401 0.80664-1.6953 0.0699-0.65518-0.1051-1.2487-0.33398-1.7031-0.45776-0.90887-1.0976-1.4679-1.8535-2.0664-1.5118-1.1971-3.6325-2.4106-6.1875-3.8281-5.11-2.835-11.895-6.3768-17.668-10.602-5.7732-4.2247-10.385-9.1124-11.58-14.227-1.1947-5.1141 0.55882-10.917 8.8652-18.139 4.2321-3.6796 5.8729-8.3769 6.2734-13.107 0.40052-4.7305-0.29577-9.5903-0.63282-14.277-0.33705-4.687-0.31779-9.1526 1.1699-13.107 1.4877-3.9548 4.38-7.5475 10.418-10.674z" color="#000000" style="-inkscape-stroke:none"/>
   <path d="m387.39 163.31c-3.821 0.15736-7.6052 0.69946-11.189 1.7852-7.1685 2.1714-13.553 6.6283-17.363 14.338-3.0956 6.2637-14.46 11.833-27.295 15.109-12.835 3.2762-27.047 4.5057-35.217 3.6367l-0.38086 3.5801c8.9369 0.95063 23.255-0.35065 36.488-3.7285 13.233-3.3779 25.471-8.5853 29.631-17.002 3.3559-6.7905 8.7294-10.534 15.182-12.488 6.4522-1.9544 13.613-1.1962 20.764-0.31978 7.1514 0.87642 14.285 1.856 19.283 3.4565 2.4988 0.80024 3.4348 1.7936 4.8656 2.3564 0.71539 0.28138 2.3956 0.27655 2.7672 0.44051 0.15205 0.0671-0.0789-0.0378 0 0 7.6351 8.2735 20.743 12.643 33.303 16.967 12.704 4.374 25.152 8.8589 31.857 16.521-7.6686-8.7628-17.538-16.908-30.252-21.285-12.715-4.3777-25.573-7.3687-32.185-14.73-0.44185-0.49194-0.42842-0.35621-0.50976-0.40234-0.0813-0.0461-0.1465-0.0786-0.22071-0.11524-0.14841-0.0733-0.32226-0.15434-0.53906-0.25-0.4336-0.19131-1.0305-0.44028-1.7832-0.73632-1.5054-0.5921-3.628-1.368-6.2051-2.1934-5.1542-1.6507-12.123-3.4973-19.588-4.4121-3.7323-0.45741-7.5911-0.68471-11.412-0.52735z" color="#000000" style="-inkscape-stroke:none"/>
   <path d="m318.01 388.5 0.86523 4.9258c-0.54132 0.095-0.77669-0.25434-0.43164 0.13672s0.90806 1.2884 1.4707 2.4746c1.1253 2.3725 2.3409 5.8859 3.5508 9.5098 1.2098 3.6239 2.4224 7.367 3.6934 10.424 0.63547 1.5284 1.2774 2.8842 2.0195 4.0352 0.74213 1.1509 1.5263 2.2507 3.1309 2.7812 2.4826 0.82082 3.5004 1.682 3.6934 1.8652-0.0517 0.0961-0.0903 0.21001-0.38868 0.51172-1.5845 1.6022-6.881 4.2815-13.002 6.7207-6.121 2.4392-13.168 4.9025-18.988 7.2695-2.9103 1.1835-5.511 2.338-7.6074 3.5098-2.0964 1.1717-3.7914 2.1449-4.7598 4.1797-10.268 21.576-28.183 34.906-46.375 46.832-18.192 11.926-36.682 22.318-47.215 38.672l5.3046-3.9547c9.5946-14.897 26.293-18.5 44.652-30.536 18.359-12.036 37.255-25.974 48.148-48.865-0.0522 0.10977 0.91488-0.97626 2.6836-1.9648 1.7687-0.98859 4.2351-2.0964 7.0527-3.2422 5.6352-2.2917 12.684-4.7576 18.953-7.2559 6.269-2.4982 11.657-4.7637 14.707-7.8477 0.76246-0.77099 1.4226-1.6454 1.7578-2.7832 0.33521-1.1378 0.18322-2.5492-0.43164-3.6211-1.2297-2.1437-3.4234-3.183-6.6152-4.2383 0.39235 0.12972-0.0334-0.0185-0.5-0.74219-0.46662-0.72365-1.0311-1.8694-1.6035-3.2461-1.1448-2.7534-2.3503-6.4373-3.5684-10.086-1.2181-3.6486-2.4396-7.2541-3.7754-10.07-0.66788-1.4081-1.3425-2.6213-2.2402-3.6387-0.89769-1.0174-2.3828-2.0716-4.1816-1.7559z" color="#000000" style="-inkscape-stroke:none"/>
   <path d="m323.22 434.91-3.3652 0.95898c0.94806 3.3257 4.2364 6.4886 8.5117 10.34 4.2753 3.8512 9.6082 8.1166 14.711 12.35 5.1027 4.233 9.9789 8.4428 13.25 12.047 1.6355 1.802 2.8611 3.4611 3.5137 4.7812s0.68415 2.1407 0.47852 2.6289c-1.3605 3.23-0.87043 6.5072 0.99023 9.0508s4.8605 4.5005 8.5859 6.2129c7.4508 3.4247 17.971 5.8181 28.859 7.8262s22.128 3.6027 30.773 5.248c4.3226 0.82267 8.0034 1.6649 10.592 2.5371 1.2942 0.43611 2.3135 0.88482 2.9609 1.2812 0.64742 0.39643 0.83267 0.727 0.81836 0.68555l6.328 4.5543c-0.40587-1.1758-4.3105-7.6072-5.3183-8.2242-1.0077-0.61705-2.2288-1.127-3.6719-1.6133-2.8861-0.97252-6.6628-1.8243-11.055-2.6602-8.7837-1.6717-20.003-3.26-30.793-5.25s-21.168-4.4091-28.033-7.5645c-3.4324-1.5777-5.9436-3.3512-7.2226-5.0996-1.279-1.7484-1.5574-3.3253-0.58789-5.627 0.75345-1.7887 0.32727-3.7293-0.56641-5.5371-0.89367-1.8078-2.3017-3.6441-4.0606-5.582-3.5177-3.8758-8.4723-8.1288-13.607-12.389-5.1351-4.2599-10.45-8.5161-14.604-12.258-4.1538-3.7417-7.0737-7.243-7.4883-8.6973z" color="#000000" style="-inkscape-stroke:none"/>
  </g>
 </g>
 <style type="text/css">.st0{fill:#4F5D73;}
	.st1{opacity:0.2;fill:#231F20;}
	.st2{fill:#F5CF87;}</style>
</svg>
